<svg xmlns="http://www.w3.org/2000/svg" viewBox="0 0 120 92" role="img" aria-label="Enviar pedido">
  <defs>
    <linearGradient id="arrowGreen" x1="8" x2="108" y1="46" y2="46" gradientUnits="userSpaceOnUse">
      <stop stop-color="#7CFC00"/>
      <stop offset="1" stop-color="#168A00"/>
    </linearGradient>
    <filter id="shadow" x="-20%" y="-20%" width="140%" height="150%">
      <feDropShadow dx="0" dy="8" stdDeviation="5" flood-color="#000" flood-opacity=".22"/>
    </filter>
  </defs>
  <path fill="#E5E7EB" filter="url(#shadow)" d="M66.4 5.4a13 13 0 0 1 18.4 0l30.4 30.4a13 13 0 0 1 0 18.4L84.8 84.6A13 13 0 0 1 62.6 75.4V64H14A13 13 0 0 1 1 51V41a13 13 0 0 1 13-13h48.6V14.6a13 13 0 0 1 3.8-9.2Z"/>
  <path fill="url(#arrowGreen)" d="M75.6 14.6 106 45 75.6 75.4V55H14V37h61.6V14.6Z"/>
</svg>
